<?xml version="1.0" encoding="utf-8"?>
<!-- Generator: Adobe Illustrator 27.6.1, SVG Export Plug-In . SVG Version: 6.00 Build 0)  -->
<svg version="1.2" baseProfile="tiny" id="Layer_1" xmlns="http://www.w3.org/2000/svg" xmlns:xlink="http://www.w3.org/1999/xlink"
	 x="0px" y="0px" viewBox="0 0 800 1440" overflow="visible" xml:space="preserve">
<g>
	<path id="_x31_0660" fill="#DDDDDD" stroke="#000000" stroke-miterlimit="10" d="M746.21,423.07l-16.26,46.79l-12.18,10.38
		l-13.74-12.72l-15.55,5.3l-8.49-13.38l3.84-18.27l10.88-18.06l22.96-9.24l17-10.03L746.21,423.07z"/>
	<path id="_x31_0639" fill="#DDDDDD" stroke="#000000" stroke-miterlimit="10" d="M296.93,556.16l3.74,3.78l-9.83,17.16l-15.55,2.2
		l-5.54-7.48l3.43-21.97L296.93,556.16z"/>
	<path id="_x31_0649" fill="#DDDDDD" stroke="#000000" stroke-miterlimit="10" d="M333.64,656.42l-28.53-1.13l-9.16,20.18
		l-6.42,0.49l-6.7-23.24l0.38-6.66l14.82,0.06l6.12-14.54l12.33,2.89l21.96-3.08l1.82,13.24L333.64,656.42z"/>
	<path id="_x31_0685" fill="#DDDDDD" stroke="#000000" stroke-miterlimit="10" d="M658.52,236.43l-18.73,21.11l-36.47-15.92
		l-9.02-9.37l-10.27,6.96l-11.04-8.49l4.86-10.84l-7.35-10.29l8.77-14.2l38.62,9.47l8.67,5.89l14.04-1.54L658.52,236.43z"/>
	<path id="_x31_0668" fill="#DDDDDD" stroke="#000000" stroke-miterlimit="10" d="M552.98,482.63l13.72,16.56l10.66-3.98l12.91,5.13
		l-5.35,11.05l-0.16,24.52l-15.06,15.85l-5.33,16.7l0.99,24.87L550,597.8l-16.6,12.71l-31.03,1.58l2.23-13.31l-12.68-26.4
		l1.75-24.31l5.3-12.37l14.38-1.68l14.21-19.51l11.91-3.23l-5.29-31.48l-12.88-12.43l7.7,0.29l7.56-14.82l3.11,11.88L552.98,482.63z
		"/>
	<path id="_x31_0663" fill="#DDDDDD" stroke="#000000" stroke-miterlimit="10" d="M361.34,629.58l6.79,9.08l13.9,1.45l20.51,10.68
		l18.47-5l11.69,7.6l11.57,37.56l-26.96,15.97l-19.09-22.27l-36.86-18.33l-15.56,12.33l-13.56-1.48l10.33-15.02l-8.93-5.73
		l6.62-11.79l-1.82-13.24l0.04-0.54L361.34,629.58z"/>
	<path id="_x31_0640" fill="#DDDDDD" stroke="#000000" stroke-miterlimit="10" d="M280.65,513.18l-9.49,20.63l-23.44,4.47
		l-23.68-5.06l8.04-12.32l-7.03-10.91l2.72-11.31l22.85,2.3l5.6-12.27l16.85,8.24L280.65,513.18z"/>
	<path id="_x31_0669" fill="#DDDDDD" stroke="#000000" stroke-miterlimit="10" d="M420.59,367.31l19.85,3.63l11.76,12.53l12.27-0.12
		l24.22,9.54l-4.78,16.34l-12.03,18.38l10.92,6.34l-5.9,17.28l-28.28,14.28l-7.41,17.92l-38.67,21.4l-13.49,3.71l-12.22-8.41
		l7.03-10.92l2.22-27.59l-6.73-13.83l5.66-11.38l-5.9-10.55l5.32-28.19l8.27-11.36l4.75-19.71L420.59,367.31z"/>
	<path id="_x31_0664" fill="#DDDDDD" stroke="#000000" stroke-miterlimit="10" d="M476.66,697.12l15.62,26.85l1.6,20.24l-6.29,5.77
		l-4.57,12.3l-6.05,14.82l-6.56,13.83l-30.77-21.69l-15.39-16.32l3.54-18.65l-12.9-23.69l2.42-3.66l26.96-15.97l4.67,17.19
		l12.73-8.33L476.66,697.12z"/>
	<path id="_x31_0623" fill="#DDDDDD" stroke="#000000" stroke-miterlimit="10" d="M192.4,141.32l-8.26,45.49l-12.78-16.88
		l-16.73,3.5l-8.16,13.45l-21.99,10.33l-1.85,11.77l10.62,5.62l1.79,25.54l9.88,15.31l-6.19,10.26l-13.24-3.8l-9.82,9.48
		l-7.22,19.12l3.18,16.38l-13.54,4.15l-8.96-5.23l-3.21-38.05l-6.05-13.95L66.5,241.38l2.41-12.52l-2.64-24.45l6.97-8.94l-5.48-9.63
		l0.29-52.72l12.51-5.72l8.66,10.38l11.74,2.69l18.15-5.8l-5.41-13.3l1.88-26.69l-12.66-22l32.03-9.8l8.88,5.62l9.85-7.02
		l1.55-21.36l15.61-7.84l11.45,5.75l20.67-8.76L187.2,72.4l-8.25,6.51l7.86,36.19l-3.07,8.77L192.4,141.32z"/>
	<path id="_x31_0622" fill="#DDDDDD" stroke="#000000" stroke-miterlimit="10" d="M288.48,70.86l-20.01,10.86l-4.4,13.25
		l-19.91,8.74l-2.33-9.39l-21.53,5.13l-11.14,0.66l-1.08,28.97l-15.68,12.24l-8.66-17.45l3.07-8.77l-7.86-36.19l8.25-6.51
		l15.76-43.13l-0.56-18.68l27.58,1.08L245.01,1l15.26,12.25l23.78-7l11.32,19.34l8.51,3.17l-6.28,26.92L288.48,70.86z"/>
	<path id="_x31_0662" fill="#DDDDDD" stroke="#000000" stroke-miterlimit="10" d="M417.31,706.92l-2.42,3.66l-28.45,11.28
		l-6.62-4.79l-23.8,4.33l0.93,10.83l-9.02,11.41l-2.39,14.93l-13.64-6.63l8-10l-5.37-10.55l6.65-10.37l-2-25.96l6.62-16.41
		l15.56-12.33l36.86,18.33L417.31,706.92z"/>
	<path id="_x31_0610" fill="#DDDDDD" stroke="#000000" stroke-miterlimit="10" d="M202.45,918.01l0.79,12.69l-17.9,19.71
		l-8.41,20.03l-8.62,34.31l-0.65,30.31l-11.64,5.91l-22.77,4.21l-3.93,8.33l-8.66-5.88l-1.9-12.07l12.6-14.79l12.85-7.65
		l-0.94-18.48l5.74-14.09l-4.78-10.01l7.01-14.24l-9.37-18.01l9.25-3.5l16.15-20.89l12.11,7.86L202.45,918.01z"/>
	<path id="_x31_0671" fill="#DDDDDD" stroke="#000000" stroke-miterlimit="10" d="M604.84,331.05l27.89,25.61l13.13-5.1l10.83,16.1
		l5.81,22.7l-40.72-3.23l-11.6,8.2l2.08,15.55l-19.51,1.14l-7.04,1.75l-10.82-16.63l-15.45-0.97l-1.91-26.25l3.09-17.34l-7.89-8.81
		l13.37-4.57l22.41,5.51l2.42-13.72L604.84,331.05z"/>
	<path id="_x31_0633" fill="#DDDDDD" stroke="#000000" stroke-miterlimit="10" d="M241.36,365.58l1.25,9.89l11.15,8.75l-3.65,15.36
		l-10.18,25.77l-15.51,23.69l-8.01,2.77l-10.52-11.35l-32.47-1.75l-12.18,6.39l-7.94-38.81l0.58-20.48l23.29-6.34l10-33.28
		l16.72,0.66l16.97,14.48L241.36,365.58z"/>
	<path id="_x31_0632" fill="#DDDDDD" stroke="#000000" stroke-miterlimit="10" d="M151.69,508.03l8.6,20.07l20.47,1.37l0.25,13.02
		l17.12,16.97l8.3-10.21l11.02-0.64l20.3,15.94l-4.08,11.65l-1.33,44.32L239,631.9l-8.06,12.55l-31.44,1.62l-31.66,7.27l-5.51-14.21
		l-15.01-20.9l-33.2-22.93l-16.98-27.76l-19.03-24.92l-5.98-23.5l13.07-18.07l17.41-8.83l8.28,2.74l-1.54-31.04l11.61,5.52
		l22.28,33.29L151.69,508.03z"/>
	<path id="_x31_0670" fill="#DDDDDD" stroke="#000000" stroke-miterlimit="10" d="M552.73,343.77l7.89,8.81l-3.09,17.34l-6.92,12.65
		l-23.29,23.7l0.86,19.04l8.38,27.53L529,467.66l-7.7-0.29l-9.4-7.76l-26.03,2.33l-8.97-10.71l5.9-17.28l-10.92-6.34l12.03-18.38
		l4.78-16.34l-24.22-9.54l-12.27,0.12l-11.76-12.53l-19.85-3.63l3.8-9.33l27.24-11.55l19.82-0.36l14.15,9.67l18.48,1.89l6.21-16.85
		l27.14,9.96L552.73,343.77z"/>
	<path id="_x31_0616" fill="#DDDDDD" stroke="#000000" stroke-miterlimit="10" d="M179.41,1175.78l4.85,4.73l-2.84,18.44l4.98,15.51
		l0.15,19.57l-8.04,8.39l-11.57-8.67l-20.9-29.53l-16.96-1.91l-0.31-14.24l-9.21-14.93l6.21-24.88L142.4,1159l2.76,19.47l14.32-3.68
		L179.41,1175.78z"/>
	<path id="_x31_0624" fill="#DDDDDD" stroke="#000000" stroke-miterlimit="10" d="M220.3,99.45l2.14,19.48l6.98,15.82l15.15,8.07
		l17.8,16.62l-0.06,22.63l-38.48,49.29l-13.32,6.9l-20.55,21.43l9.57,4.86l-5.72,25.83l6.42,11.62l-15.84,8.01l-29.23-14.31
		l-0.39-19.66l16.29-23.49l-8.48-9.85l-7.35-28.44l8.25-2.25l20.66-25.2l8.26-45.49l15.68-12.24l1.08-28.97L220.3,99.45z"/>
	<path id="_x31_0625" fill="#DDDDDD" stroke="#000000" stroke-miterlimit="10" d="M184.14,186.81l-20.66,25.2l-8.25,2.25l7.35,28.44
		l8.48,9.85l-16.29,23.49l-28.21,12.17l-1.07-26.3l13.24,3.8l6.19-10.26l-9.88-15.31l-1.79-25.54l-10.62-5.62l1.85-11.77
		l21.99-10.33l8.16-13.45l16.73-3.5L184.14,186.81z"/>
	<path id="_x31_0676" fill="#DDDDDD" stroke="#000000" stroke-miterlimit="10" d="M455.13,217.63l-4.75,12.03l-3.23,34.47
		l9.33,14.56l-13.25,13.78l3.77,11.49l-7.49,12.11l19.86,17.07l-7.74,13.29l-27.24,11.55l-14.73-27.29l-41.65-6.64l-13.97,20.37
		l-4-9.05l6.66-22.06l-18.16-10.66l3.09-21.26l18.88,9.11l11.13-12.67l37.77-29.38l9.01-1.69l5.95-15.66l11.06,3.54L455.13,217.63z"
		/>
	<path id="_x31_0641" fill="#DDDDDD" stroke="#000000" stroke-miterlimit="10" d="M376.83,500.13l-1.92,20.81l10.21,3.19l6.62,17.35
		l-17.06,14.18l-8.27-2.52l-10.55-9.44l-12.6,10.04l-16.54-11.58l-18.44,20.69l-7.61-2.91l-3.74-3.78l-3.32-32.57l11.24-19.57
		l17.99-16.95l-0.43-5.92l23.06,1.52L376.83,500.13z"/>
	<path id="_x31_0609" fill="#DDDDDD" stroke="#000000" stroke-miterlimit="10" d="M102.92,72.68l12.66,22l-1.88,26.69l5.41,13.3
		l-18.15,5.8l-11.74-2.69l-8.66-10.38l-12.51,5.72l-0.29,52.72l5.48,9.63l-6.97,8.94l2.64,24.45l-2.41,12.52l13.37,12.43l6.05,13.95
		l-38.29,13.69l-13.49-12.07l-9.01-14.67l7.56-13.46L15.2,205.91l-11.76-0.05L1,190.72l30.88-7.91l-2.17-27.27l-6.35-7.16
		l14.84-18.1l-4.24-27.7l7.91-16.51l15.49-6.94l1.58-15.9l27.44,10.96L102.92,72.68z"/>
	<path id="_x31_0672" fill="#DDDDDD" stroke="#000000" stroke-miterlimit="10" d="M592.75,412.02l-5.5,10.15l2.6,17.52l-5.83,20.65
		l-13.44,10.58l11.68,17l-7.2,2.53l-22.08-7.82l-13.31-17.91l-3.11-11.88l-8.38-27.53l-0.86-19.04l23.29-23.7l6.92-12.65l1.91,26.25
		l15.45,0.97l10.82,16.63L592.75,412.02z"/>
	<path id="_x31_0682" fill="#DDDDDD" stroke="#000000" stroke-miterlimit="10" d="M712.34,352.89l-0.33,28.15l22.66,22.8l-17,10.03
		l-17.62-2.4l-13.02-12.28l-13.71,1.8l-10.82-10.63l-5.81-22.7l-10.83-16.1l16.13-6.17l28.12,7.88L712.34,352.89z"/>
	<path id="_x31_0642" fill="#DDDDDD" stroke="#000000" stroke-miterlimit="10" d="M387.39,585.29l2.91,16.45l-28.96,27.84
		l-22.86,1.27l0.7-25.1l12.08-10.94l14.36-2.72l5.63-12.14L387.39,585.29z"/>
	<path id="_x31_0651" fill="#DDDDDD" stroke="#000000" stroke-miterlimit="10" d="M278.12,615.24l-1.9,8.43l6.99,22.39l-0.38,6.66
		l-7.03,6.67l-17.53-2.17l-11.47-3.93l-1.24-18.62L239,631.9l-6.66-11.38l16.96-8.13l22.78-3.07L278.12,615.24z"/>
	<path id="_x31_0681" fill="#DDDDDD" stroke="#000000" stroke-miterlimit="10" d="M712.34,352.89l-22.23,0.38l-28.12-7.88
		L677,333.16l4.9-21.85l-2.84-16.29l-35.3,2.34l-4.06-8.27l6.47-19.3l-6.38-12.25l18.73-21.11l6.5,14.04l17.63,20.2l24.32,13.45
		l11.04,15l-0.63,19.53l-6.75,16.41L712.34,352.89z"/>
	<path id="_x31_0673" fill="#DDDDDD" stroke="#000000" stroke-miterlimit="10" d="M476.9,451.23l8.97,10.71l26.03-2.33l9.4,7.76
		l12.88,12.43l5.29,31.48l-11.91,3.23l-14.21,19.51l-14.38,1.68l-5.3,12.37l-1.75,24.31l12.68,26.4l-2.23,13.31l-42.71,1.25
		l-9.82-4.84l-18.1-17.36l-10.98,4.69l-12.93-11.23l-20.44,0.69l-16.14-5.34l-4.84-26.81l8.27,2.52l17.06-14.18l-6.62-17.35
		l-10.21-3.19l1.92-20.81l12.22,8.41l13.49-3.71l38.67-21.4l7.41-17.92L476.9,451.23z"/>
	<path id="_x31_0644" fill="#DDDDDD" stroke="#000000" stroke-miterlimit="10" d="M323.91,439.11l7.51,29.62l-9.01,12.42l0.43,5.92
		l-17.99,16.95l-11.24,19.57l-12.96-10.41l-7.58-16.23l-16.85-8.24l-15.53-10.8l-4.37-10.2l-15.21-4.12l-21.08,11.33l-26.91-18.75
		l-7.74-1.45l-4.14-9.62l12.18-6.39l32.47,1.75l10.52,11.35l8.01-2.77l15.51-23.69l10.18-25.77l16.88,36.98l10.86,4.62l31.27-4.14
		L323.91,439.11z"/>
	<path id="_x31_0611" fill="#DDDDDD" stroke="#000000" stroke-miterlimit="10" d="M263.21,1228.18l-16.51-9.9l-20.87,5.13
		l-1.62-13.7l-11.52,1.04l-6.77,9.94l-19.52-6.23l-4.98-15.51l2.84-18.44l-7.3-9.28l20.04-20.64l8.02-23.88l15.84-8.23l8.81-17.49
		l-2.81-11.19l12.71-0.58l7.88,60.92l17.18,21.05l12.35,6.97l6.89,36.72l-18.17,6.24L263.21,1228.18z"/>
	<path id="_x31_0626" fill="#DDDDDD" stroke="#000000" stroke-miterlimit="10" d="M354.86,202.17l-15,11.81l-15.42,21.73
		l-17.85-2.44l-14.99,3.42l11.17-37.92l-12.37-8.47l-5.55-31.18l12.21-22.87l14.81-7.71l-2.54-19.38l-8.78-6.67l5.86-10.66
		l17.3,2.51l12.3-12.73l23.76,4.71l12.33,6.86l-7.7,11.46l6.15,24.1l7.97,7.56l-9.02,17.03l0.95,21l-19.32,20.44L354.86,202.17z"/>
	<path id="_x31_0683" fill="#DDDDDD" stroke="#000000" stroke-miterlimit="10" d="M417.88,1347.32l8.24,10.66l25.69,20.1
		l-1.28,15.79l-12.15,10.98l-2.12,11.88l-10.91,11.59l-13.06-2.49l-8.4-13.66l-7.68,1.32l-1.32-15.5l-10.15-14.36l5.35-20.89
		l15.97-13.58L417.88,1347.32z"/>
	<path id="_x31_0680" fill="#DDDDDD" stroke="#000000" stroke-miterlimit="10" d="M510.29,340.78l-6.21,16.85l-18.48-1.89
		l-14.15-9.67l-19.82,0.36l7.74-13.29l-19.86-17.07l7.49-12.11l-3.77-11.49l13.25-13.78l10.06-5.43l14.59,2.14l10.73,30.9
		l2.64,16.09L510.29,340.78z"/>
	<path id="_x31_0677" fill="#DDDDDD" stroke="#000000" stroke-miterlimit="10" d="M584.03,239.21l-3.51,12l-13.4-1.18l-8.97,7.45
		l-10.71-8.21l-16.85,0.1l-3.61,17.98l-9.32,9.06l-28-14.77L482.95,249l-32.57-19.34l4.75-12.03l29.58,21.17l18.19,3.79l7.12,8.72
		l27.36-14.25l19.64-21.83l13.48-5.64l7.35,10.29l-4.86,10.84L584.03,239.21z"/>
	<path id="_x31_0650" fill="#DDDDDD" stroke="#000000" stroke-miterlimit="10" d="M284.63,615.48l1.18,11.02l18.34,5.08l-6.12,14.54
		l-14.82-0.06l-6.99-22.39l1.9-8.43L284.63,615.48z"/>
	<path id="_x31_0646" fill="#DDDDDD" stroke="#000000" stroke-miterlimit="10" d="M339.18,605.75l-0.7,25.1l-0.04,0.54l-21.96,3.08
		l-12.33-2.89l-18.34-5.08l-1.18-11.02l24.55-0.94l21.3-11.49L339.18,605.75z"/>
	<path id="_x31_0684" fill="#DDDDDD" stroke="#000000" stroke-miterlimit="10" d="M417.88,1347.32l-11.82,1.84l-8.99-3.94
		l-16.62,4.49l-22.96-8.55l-6.05-9.21l2.84-12.14l11.97-0.4l9.73-9l25.78,10.95L417.88,1347.32z"/>
	<path id="_x31_0613" fill="#DDDDDD" stroke="#000000" stroke-miterlimit="10" d="M125.77,1148.26l-6.21,24.88l-19.03,7.25
		l-2.73,14.14l-13.93-7.52l-8.1-32.05l2.13-16.52l15.73-33.56l-5.21-8.97l5.95-17.53l11.78,3.74l-2.82,23.59l1.89,18.07l10.06,8.41
		l-2.01,16.01L125.77,1148.26z"/>
	<path id="_x31_0617" fill="#DDDDDD" stroke="#000000" stroke-miterlimit="10" d="M263.21,1228.18l6.92,2.85l-5.63,7.02l4.13,18.04
		l9.06,14.75l9.7,5.09l-9.21,9.85l-24.57,11.32l-8.56-19.89l-14.2-29.76l2.41-6.81l-7.43-17.23l20.87-5.13L263.21,1228.18z"/>
	<path id="_x31_0627" fill="#DDDDDD" stroke="#000000" stroke-miterlimit="10" d="M306.41,91.83l-5.86,10.66l8.78,6.67l2.54,19.38
		l-14.81,7.71l-12.21,22.87l-22.48,0.32l-17.8-16.62l-15.15-8.07l-6.98-15.82l-2.14-19.48l21.53-5.13l2.33,9.39l19.91-8.74
		l4.4-13.25l20.01-10.86l6.98,18.17L306.41,91.83z"/>
	<path id="_x31_0635" fill="#DDDDDD" stroke="#000000" stroke-miterlimit="10" d="M424.39,357.98l-3.8,9.33l-23.14-0.71l-4.75,19.71
		l-8.27,11.36l-5.32,28.19l5.9,10.55l-5.66,11.38l6.73,13.83l-2.22,27.59l-7.03,10.92l-31.36-17.46l-23.06-1.52l9.01-12.42
		l-7.51-29.62l-12.13-11.99l6.6-19.16l-2.9-9.27l12.27-10.57l10.06-32.82l16.23-10.88l13.97-20.37l41.65,6.64L424.39,357.98z"/>
	<path id="_x31_0652" fill="#DDDDDD" stroke="#000000" stroke-miterlimit="10" d="M236.92,691.71l9.92,3.58l13.92,22.73
		l-11.32,25.91l-2.61,14.97l-13.13,0.85l-19.49,7.98l-21.34-2.11l-17.49-14.61l-12.74-31.14l9.05-16.82l13,4.4l30.64-3.24
		l6.55-10.88L236.92,691.71z"/>
	<path id="_x31_0634" fill="#DDDDDD" stroke="#000000" stroke-miterlimit="10" d="M315.48,398.69l2.9,9.27l-6.6,19.16l12.13,11.99
		l-14.79-2.07l-31.27,4.14l-10.86-4.62l-16.88-36.98l3.65-15.36l21.6-8.48l3.13,7.12l23.83-2.67L315.48,398.69z"/>
	<path id="_x31_0629" fill="#DDDDDD" stroke="#000000" stroke-miterlimit="10" d="M343.39,266.63l-1.76,14.76l-3.09,21.26
		l18.16,10.66l-6.66,22.06l4,9.05l-16.23,10.88l-10.06,32.82l-12.27,10.57l-13.16-18.5l-23.83,2.67l-3.13-7.12l-21.6,8.48
		l-11.15-8.75l-1.25-9.89l4.97-17.17L263,338.28l-14.03-19.05l21.61-3.05l8.61-16.47l27.84-5.25l28.22-27.51L343.39,266.63z"/>
	<path id="_x31_0628" fill="#DDDDDD" stroke="#000000" stroke-miterlimit="10" d="M284.85,159.12l5.55,31.18l12.37,8.47
		l-11.17,37.92l-27.63,15.01l-23.37,5.6l-35.67,0.88l-5.4,6.37l-9.57-4.86l20.55-21.43l13.32-6.9l38.48-49.29l0.06-22.63
		L284.85,159.12z"/>
	<path id="_x31_0645" fill="#DDDDDD" stroke="#000000" stroke-miterlimit="10" d="M308.28,562.85l10.93,8.36l11.27,31.84
		l-21.3,11.49l-24.55,0.94l-6.51-0.24l-6.04-5.92l5.87-20.01l-2.66-10.01l15.55-2.2l9.83-17.16L308.28,562.85z"/>
	<path id="_x31_0612" fill="#DDDDDD" stroke="#000000" stroke-miterlimit="10" d="M97.18,1218.28l-12.3,12.25l-3.66-14.63
		l2.65-25.58l15.3,10.61L97.18,1218.28z"/>
	<path id="_x31_0643" fill="#DDDDDD" stroke="#000000" stroke-miterlimit="10" d="M449.84,608.5l-13.62,14.54l-5.49,19.29
		l1.97,11.06l-11.69-7.6l-18.47,5l-20.51-10.68l-13.9-1.45l-6.79-9.08l28.96-27.84l-2.91-16.45l20.44-0.69l12.93,11.23l10.98-4.69
		L449.84,608.5z"/>
	<path id="_x31_0653" fill="#DDDDDD" stroke="#000000" stroke-miterlimit="10" d="M202.45,918.01l-23.07,3.75l-12.11-7.86
		l47.46-75.36l-6.66-5.55l-16.92-57.56l1.72-9.81l21.34,2.11l19.49-7.98l13.13-0.85l5.75,43.05l-18.32,26.02l-1.38,17.79l-6.33,3.06
		l-17.71,36.49l1.64,13.47l-8.72,6.05L202.45,918.01z"/>
	<path id="_x31_0614" fill="#DDDDDD" stroke="#000000" stroke-miterlimit="10" d="M129.32,1053.51l-7.46,23.65l-15.71,4.96
		l-11.78-3.74l7.15-25.19l9.94-13.41l-5.15-9.15l20.16-37.96l6.79-26.43l-3.26-16.1l11.87-11.85l9.37,18.01l-7.01,14.24l4.78,10.01
		l-5.74,14.09l0.94,18.48l-12.85,7.65l-12.6,14.79l1.9,12.07L129.32,1053.51z"/>
	<path id="_x31_0654" fill="#DDDDDD" stroke="#000000" stroke-miterlimit="10" d="M258.27,657.22l-3.96,17.4l-11.59-0.5l-5.8,17.59
		l-15.04,1.62l-6.55,10.88l-30.64,3.24l-13-4.4l0.14-20.92l-3.99-28.79l31.66-7.27l31.44-1.62L239,631.9l6.56,2.77l1.24,18.62
		L258.27,657.22z"/>
	<path id="_x31_0666" fill="#DDDDDD" stroke="#000000" stroke-miterlimit="10" d="M414.89,710.58l12.9,23.69l-3.54,18.65
		l-31.44,6.36l-36.62-4.69l-10.65,3.98l2.39-14.93l9.02-11.41l-0.93-10.83l23.8-4.33l6.62,4.79L414.89,710.58z"/>
	<path id="_x31_0674" fill="#DDDDDD" stroke="#000000" stroke-miterlimit="10" d="M673.32,400.99l-11.96,15.12l-12.41,7.43
		l0.68,25.99l9.66,21.04l-7.94,4.08l-13.92,14.98l-38.31-5.34l-16.86,3.63l-11.68-17l13.44-10.58l5.83-20.65l-2.6-17.52l5.5-10.15
		l19.51-1.14l-2.08-15.55l11.6-8.2l40.72,3.23L673.32,400.99z"/>
	<path id="_x31_0665" fill="#DDDDDD" stroke="#000000" stroke-miterlimit="10" d="M502.37,612.09l31.03-1.58l-4.29,14.01l-9.4,8.2
		l-7.2,16.92l-15.17,8.94l-2.83,9.95l-17.56,0.25l-0.29,28.34l-14.99,2.69l-12.73,8.33l-4.67-17.19l-11.57-37.56l-1.97-11.06
		l5.49-19.29l13.62-14.54l9.82,4.84L502.37,612.09z"/>
	<path id="_x31_0678" fill="#DDDDDD" stroke="#000000" stroke-miterlimit="10" d="M639.79,257.54l6.38,12.25l-6.47,19.3l4.06,8.27
		l35.3-2.34l2.84,16.29l-4.9,21.85l-15.01,12.23l-16.13,6.17l-13.13,5.1l-27.89-25.61l0.1-6.1L586.79,313l-18.56-3.39l-0.25-16.47
		l12.33-15.95l0.21-25.98l3.51-12l10.27-6.96l9.02,9.37L639.79,257.54z"/>
	<path id="_x31_0655" fill="#DDDDDD" stroke="#000000" stroke-miterlimit="10" d="M333.64,656.42l8.93,5.73l-10.33,15.02
		l-18.56-4.08l-17.73,2.38l9.16-20.18L333.64,656.42z"/>
	<path id="_x31_0656" fill="#DDDDDD" stroke="#000000" stroke-miterlimit="10" d="M289.53,675.96l-12.2-2.53l-18.06,8.81l-4.96-7.62
		l3.96-17.4l17.53,2.17l7.03-6.67L289.53,675.96z"/>
	<path id="_x31_0657" fill="#DDDDDD" stroke="#000000" stroke-miterlimit="10" d="M254.31,674.62l4.96,7.62l-12.43,13.05l-9.92-3.58
		l5.8-17.59L254.31,674.62z"/>
	<path id="_x31_0648" fill="#DDDDDD" stroke="#000000" stroke-miterlimit="10" d="M366.41,553.14l4.84,26.81l-5.63,12.14
		l-14.36,2.72l-12.08,10.94l-8.7-2.7l-11.27-31.84l-10.93-8.36l18.44-20.69l16.54,11.58l12.6-10.04L366.41,553.14z"/>
	<path id="_x31_0618" fill="#DDDDDD" stroke="#000000" stroke-miterlimit="10" d="M255.14,1299.85l16.2,17.29l-1.38,18.04
		l-6.97,24.96l-25.21-31.09l-17.63-11.14l-0.64-14.5l6.44-9.99l17.7-0.78L255.14,1299.85z"/>
	<path id="_x31_0647" fill="#DDDDDD" stroke="#000000" stroke-miterlimit="10" d="M293.61,523.59l3.32,32.57l-23.75-6.31
		l-2.02-16.04l9.49-20.63L293.61,523.59z"/>
	<path id="_x31_0658" fill="#DDDDDD" stroke="#000000" stroke-miterlimit="10" d="M679.38,501.8l24.86,3.01l1.92,27.4l11.55,7.72
		l9.85,23.02l-7.94,9.2l8.02,16.2l-13.97-4.53l-30.96,8.05l-19.91-4.29l-19.57,4.26l1.61-28.84l-14.1-19.37l9.77-17.94l-3.08-36.06
		l13.92-14.98l12.1,19.08L679.38,501.8z"/>
	<path id="_x31_0619" fill-rule="evenodd" fill="#DDDDDD" stroke="#000000" stroke-miterlimit="10" d="M269.96,1335.18l1.38-18.04
		l-16.2-17.29l-1.53-2.75l24.57-11.32l9.21-9.85l5.61,14.53l14.44-6.24l19.32,24.98l27.52,10.61l-2.84,12.14l6.05,9.21l-7,15.61
		l-9.49,3.29l-1.94,12.1l-11.15-11.21l-16.07-1.05l-29.26-10.97L269.96,1335.18z M270.13,1231.03l-6.92-2.85l2.49-7.06l18.17-6.24
		l9.48,44.82l-11.32-13.53l-3.38-16.69L270.13,1231.03z"/>
	<path id="_x31_0630" fill="#DDDDDD" stroke="#000000" stroke-miterlimit="10" d="M240.6,257.3l7.81,12.43L243.88,280l10.18,12.77
		l-5.09,26.46L263,338.28l-16.67,10.13l-4.97,17.17l-20.5-4.25l-16.97-14.48l-16.72-0.66l-6.51-4.05l3.73-32.13l15.84-8.01
		l-6.42-11.62l5.72-25.83l5.4-6.37L240.6,257.3z"/>
	<path id="_x31_0636" fill="#DDDDDD" stroke="#000000" stroke-miterlimit="10" d="M224.04,533.22l23.68,5.06l23.44-4.47l2.02,16.04
		l-3.43,21.97l5.54,7.48l2.66,10.01l-5.87,20.01l-22.78,3.07l-16.96,8.13l1.33-44.32l4.08-11.65l-20.3-15.94l-11.02,0.64l-8.3,10.21
		l-17.12-16.97l-0.25-13.02l34.35,5.13L224.04,533.22z"/>
	<path id="_x31_0615" fill-rule="evenodd" fill="#DDDDDD" stroke="#000000" stroke-miterlimit="10" d="M258.98,1056.1l-2.44,10.74
		l-11.08,4.43l-1.01-15.48L258.98,1056.1z M179.41,1175.78l-19.93-0.99l-14.32,3.68L142.4,1159l-16.63-10.74l-12.5-0.06l2.01-16.01
		l-10.06-8.41l-1.89-18.07l2.82-23.59l15.71-4.96l7.46-23.65l3.93-8.33l22.77-4.21l11.64-5.91l7.59,24.13l9.75,14.67l-6.65,15.44
		l11.94,3.84l30.21-11.94l6.36,8.6l2.81,11.19l-8.81,17.49l-15.84,8.23l-8.02,23.88l-20.04,20.64L179.41,1175.78z"/>
	<path id="_x31_0675" fill="#DDDDDD" stroke="#000000" stroke-miterlimit="10" d="M582.26,487.92l16.86-3.63l38.31,5.34l3.08,36.06
		l-9.77,17.94l14.1,19.37l-1.61,28.84l-35.28-2.58l-14.44-3.42l-28.15,7.49l-0.99-24.87l5.33-16.7l15.06-15.85l0.16-24.52
		l5.35-11.05l-12.91-5.13l-10.66,3.98l-13.72-16.56l22.08,7.82L582.26,487.92z"/>
	<path id="_x31_0637" fill="#DDDDDD" stroke="#000000" stroke-miterlimit="10" d="M154.77,276.04l0.39,19.66l29.23,14.31
		l-3.73,32.13l6.51,4.05l-10,33.28l-23.29,6.34l-0.58,20.48l7.94,38.81l4.14,9.62l-7.75,21.89l1.44,14.74l-7.38,16.68l-8.45-5.3
		l-22.28-33.29l-11.61-5.52l3.86-29.3l9.29-14.49l12.39,1.52l9.25-26.32l-5.74-5.5l-15.63,16l-4.92-18.41l-16.98-25.24l5.13-16.45
		l-8.89-13.24l-30.79-26.55l-11.43-19.69l-7.26-4.8l38.29-13.69l3.21,38.05l8.96,5.23l13.54-4.15l-3.18-16.38l7.22-19.12l9.82-9.48
		l1.07,26.3L154.77,276.04z"/>
	<path id="_x31_0620" fill="#DDDDDD" stroke="#000000" stroke-miterlimit="10" d="M253.61,1297.1l1.53,2.75l-11.49-7.21l-17.7,0.78
		l-12.76-0.68l-22.9-17.89l-11.78-32.43l8.04-8.39l-0.15-19.57l19.52,6.23l7.06-10.09l11.23-0.89l0.83,12.52l8.3,18.9l-2.35,6.89
		l14.06,29.19L253.61,1297.1z"/>
	<path id="_x31_0667" fill="#DDDDDD" stroke="#000000" stroke-miterlimit="10" d="M476.97,777.1l6.05-14.82l4.57-12.3l31.07,28.35
		l-6.78,25l-18.24,4.38L472.51,801l8.54-18.26L476.97,777.1z"/>
	<path id="_x31_0659" fill="#DDDDDD" stroke="#000000" stroke-miterlimit="10" d="M727.64,588.35l-8.02-16.2l7.94-9.2l-9.85-23.02
		l-11.55-7.72l-1.92-27.4l-24.86-3.01l-1.67-22.95l10.77-6.03l15.55-5.3l13.74,12.72l12.18-10.38l16.26-46.79l30.58,8.35l-5.97,8.78
		l8.48,15l11.7,1.51l8,11.14l-4.53,18.96l-11.46,6.25l7.55,9.93l-10.88,17.26l9.86,8.68l-6.25,21.26l1.79,21.58l-8.89,13.19
		l-25.32,9.48l-10.45,11.3L727.64,588.35z"/>
	<path id="_x31_0679" fill="#DDDDDD" stroke="#000000" stroke-miterlimit="10" d="M580.52,251.21l-0.21,25.98l-12.33,15.95
		l0.25,16.47l18.56,3.39l18.15,11.95l-0.1,6.1l-13.91-0.06l-2.42,13.72l-22.41-5.51l-13.37,4.57l-15.3,6.97l-27.14-9.96
		l-15.79-18.39l-2.64-16.09l-10.73-30.9l-14.59-2.14l-10.06,5.43l-9.33-14.56l3.23-34.47L482.95,249l6.71,12.64l28,14.77l9.32-9.06
		l3.61-17.98l16.85-0.1l10.71,8.21l8.97-7.45L580.52,251.21z"/>
	<path id="_x31_0638" fill="#DDDDDD" stroke="#000000" stroke-miterlimit="10" d="M256.22,488.71l-5.6,12.27l-22.85-2.3l-2.72,11.31
		l7.03,10.91l-8.04,12.32l-8.93,1.38l-34.35-5.13l-20.47-1.37l-8.6-20.07l7.38-16.68l-1.44-14.74l7.75-21.89l7.74,1.45l26.91,18.75
		l21.08-11.33l15.21,4.12l4.37,10.2L256.22,488.71z"/>
	<path id="_x31_0631" fill="#DDDDDD" stroke="#000000" stroke-miterlimit="10" d="M343.39,266.63l-8.14,0.32l-28.22,27.51
		l-27.84,5.25l-8.61,16.47l-21.61,3.05l5.09-26.46L243.88,280l4.53-10.27l-7.81-12.43l23.37-5.6l27.63-15.01l14.99-3.42l17.85,2.44
		l15.42-21.73l15-11.81l7.89,4.73l0.95,26.15l-15.94,16.37L343.39,266.63z"/>
	<path id="_x31_0621" fill="#DDDDDD" stroke="#000000" stroke-miterlimit="10" d="M406.06,1349.16l-15.97,13.58l-5.35,20.89
		l10.15,14.36l1.32,15.5l-24.37,10.26L359.53,1439l-15.04-14.67l10.83-15.25l-0.96-30.36l-15.3-6.56l1.34-11.19l10.09-4.2l7-15.61
		l22.96,8.55l16.62-4.49L406.06,1349.16z"/>
	<path id="_x31_0661" fill="#DDDDDD" stroke="#000000" stroke-miterlimit="10" d="M717.67,413.87l-22.96,9.24l-10.88,18.06
		l-3.84,18.27l8.49,13.38l-10.77,6.03l1.67,22.95l-15.93-8.07l-12.1-19.08l7.94-4.08l-9.66-21.04l-0.68-25.99l12.41-7.43
		l11.96-15.12l13.71-1.8l13.02,12.28L717.67,413.87z"/>
</g>
</svg>
