<?xml version="1.0" encoding="utf-8"?>
<!-- Generator: Adobe Illustrator 27.6.1, SVG Export Plug-In . SVG Version: 6.00 Build 0)  -->
<svg version="1.1" id="Layer_1" xmlns="http://www.w3.org/2000/svg" xmlns:xlink="http://www.w3.org/1999/xlink" x="0px" y="0px"
	 viewBox="0 0 800 1440" style="enable-background:new 0 0 800 1440;" xml:space="preserve">
<style type="text/css">
	.st0{fill:#999999;stroke:#000000;stroke-miterlimit:10;}
	.st1{fill-rule:evenodd;clip-rule:evenodd;fill:#999999;stroke:#000000;stroke-miterlimit:10;}
</style>
<g>
	<path id="_x31_0660" class="st0" d="M746.2,423.1L730,469.9l-12.2,10.4L704,467.5l-15.6,5.3l-8.5-13.4l3.8-18.3l10.9-18.1l23-9.2
		l17-10L746.2,423.1z"/>
	<path id="_x31_0639" class="st0" d="M296.9,556.2l3.7,3.8l-9.8,17.2l-15.5,2.2l-5.5-7.5l3.4-22L296.9,556.2z"/>
	<path id="_x31_0649" class="st0" d="M333.6,656.4l-28.5-1.1l-9.2,20.2l-6.4,0.5l-6.7-23.2l0.4-6.7l14.8,0.1l6.1-14.5l12.3,2.9
		l22-3.1l1.8,13.2L333.6,656.4z"/>
	<path id="_x31_0685" class="st0" d="M658.5,236.4l-18.7,21.1l-36.5-15.9l-9-9.4l-10.3,7l-11-8.5l4.9-10.8l-7.3-10.3l8.8-14.2
		l38.6,9.5l8.7,5.9l14-1.5L658.5,236.4z"/>
	<path id="_x31_0668" class="st0" d="M553,482.6l13.7,16.6l10.7-4l12.9,5.1l-5.4,11.1l-0.2,24.5l-15.1,15.9l-5.3,16.7l1,24.9
		l-15.4,4.5l-16.6,12.7l-31,1.6l2.2-13.3l-12.7-26.4l1.8-24.3l5.3-12.4l14.4-1.7l14.2-19.5l11.9-3.2l-5.3-31.5l-12.9-12.4l7.7,0.3
		l7.6-14.8l3.1,11.9L553,482.6z"/>
	<path id="_x31_0663" class="st0" d="M361.3,629.6l6.8,9.1l13.9,1.5l20.5,10.7l18.5-5l11.7,7.6l11.6,37.6l-27,16l-19.1-22.3
		l-36.9-18.3l-15.6,12.3l-13.6-1.5l10.3-15l-8.9-5.7l6.6-11.8l-1.8-13.2l0-0.5L361.3,629.6z"/>
	<path id="_x31_0640" class="st0" d="M280.6,513.2l-9.5,20.6l-23.4,4.5l-23.7-5.1l8-12.3l-7-10.9l2.7-11.3l22.8,2.3l5.6-12.3
		l16.9,8.2L280.6,513.2z"/>
	<path id="_x31_0669" class="st0" d="M420.6,367.3l19.9,3.6l11.8,12.5l12.3-0.1l24.2,9.5l-4.8,16.3l-12,18.4l10.9,6.3l-5.9,17.3
		l-28.3,14.3l-7.4,17.9l-38.7,21.4l-13.5,3.7l-12.2-8.4l7-10.9l2.2-27.6l-6.7-13.8l5.7-11.4l-5.9-10.6l5.3-28.2l8.3-11.4l4.8-19.7
		L420.6,367.3z"/>
	<path id="_x31_0664" class="st0" d="M476.7,697.1l15.6,26.8l1.6,20.2l-6.3,5.8l-4.6,12.3l-6,14.8l-6.6,13.8l-30.8-21.7l-15.4-16.3
		l3.5-18.6l-12.9-23.7l2.4-3.7l27-16l4.7,17.2l12.7-8.3L476.7,697.1z"/>
	<path id="_x31_0623" class="st0" d="M192.4,141.3l-8.3,45.5l-12.8-16.9l-16.7,3.5l-8.2,13.5l-22,10.3l-1.9,11.8l10.6,5.6l1.8,25.5
		l9.9,15.3l-6.2,10.3l-13.2-3.8l-9.8,9.5l-7.2,19.1l3.2,16.4L98.1,311l-9-5.2l-3.2-38l-6-14l-13.4-12.4l2.4-12.5l-2.6-24.4l7-8.9
		l-5.5-9.6l0.3-52.7l12.5-5.7l8.7,10.4l11.7,2.7l18.2-5.8l-5.4-13.3l1.9-26.7l-12.7-22l32-9.8l8.9,5.6l9.8-7l1.6-21.4l15.6-7.8
		l11.4,5.8l20.7-8.8l-15.8,43.1l-8.2,6.5l7.9,36.2l-3.1,8.8L192.4,141.3z"/>
	<path id="_x31_0622" class="st0" d="M288.5,70.9l-20,10.9L264.1,95l-19.9,8.7l-2.3-9.4l-21.5,5.1l-11.1,0.7l-1.1,29l-15.7,12.2
		l-8.7-17.5l3.1-8.8l-7.9-36.2l8.2-6.5L203,29.3l-0.6-18.7l27.6,1.1L245,1l15.3,12.2l23.8-7l11.3,19.3l8.5,3.2l-6.3,26.9L288.5,70.9
		z"/>
	<path id="_x31_0662" class="st0" d="M417.3,706.9l-2.4,3.7l-28.5,11.3l-6.6-4.8l-23.8,4.3l0.9,10.8l-9,11.4l-2.4,14.9l-13.6-6.6
		l8-10l-5.4-10.5l6.6-10.4l-2-26l6.6-16.4l15.6-12.3l36.9,18.3L417.3,706.9z"/>
	<path id="_x31_0610" class="st0" d="M202.4,918l0.8,12.7l-17.9,19.7l-8.4,20l-8.6,34.3l-0.6,30.3L156,1041l-22.8,4.2l-3.9,8.3
		l-8.7-5.9l-1.9-12.1l12.6-14.8l12.9-7.7l-0.9-18.5l5.7-14.1l-4.8-10l7-14.2l-9.4-18l9.2-3.5l16.2-20.9l12.1,7.9L202.4,918z"/>
	<path id="_x31_0671" class="st0" d="M604.8,331l27.9,25.6l13.1-5.1l10.8,16.1l5.8,22.7l-40.7-3.2l-11.6,8.2l2.1,15.6l-19.5,1.1
		l-7,1.8l-10.8-16.6l-15.5-1l-1.9-26.2l3.1-17.3l-7.9-8.8l13.4-4.6l22.4,5.5l2.4-13.7L604.8,331z"/>
	<path id="_x31_0633" class="st0" d="M241.4,365.6l1.2,9.9l11.1,8.8l-3.6,15.4l-10.2,25.8L224.4,449l-8,2.8l-10.5-11.4l-32.5-1.8
		l-12.2,6.4l-7.9-38.8l0.6-20.5l23.3-6.3l10-33.3l16.7,0.7l17,14.5L241.4,365.6z"/>
	<path id="_x31_0632" class="st0" d="M151.7,508l8.6,20.1l20.5,1.4l0.2,13l17.1,17l8.3-10.2l11-0.6l20.3,15.9l-4.1,11.7l-1.3,44.3
		l6.7,11.4l-8.1,12.5l-31.4,1.6l-31.7,7.3l-5.5-14.2l-15-20.9l-33.2-22.9l-17-27.8l-19-24.9l-6-23.5L85.2,501l17.4-8.8l8.3,2.7
		l-1.5-31l11.6,5.5l22.3,33.3L151.7,508z"/>
	<path id="_x31_0670" class="st0" d="M552.7,343.8l7.9,8.8l-3.1,17.3l-6.9,12.6l-23.3,23.7l0.9,19l8.4,27.5l-7.6,14.8l-7.7-0.3
		l-9.4-7.8l-26,2.3l-9-10.7l5.9-17.3l-10.9-6.3l12-18.4l4.8-16.3l-24.2-9.5l-12.3,0.1l-11.8-12.5l-19.9-3.6l3.8-9.3l27.2-11.6
		l19.8-0.4l14.1,9.7l18.5,1.9l6.2-16.9l27.1,10L552.7,343.8z"/>
	<path id="_x31_0616" class="st0" d="M179.4,1175.8l4.8,4.7l-2.8,18.4l5,15.5l0.2,19.6l-8,8.4l-11.6-8.7l-20.9-29.5l-17-1.9
		l-0.3-14.2l-9.2-14.9l6.2-24.9l16.6,10.7l2.8,19.5l14.3-3.7L179.4,1175.8z"/>
	<path id="_x31_0624" class="st0" d="M220.3,99.4l2.1,19.5l7,15.8l15.2,8.1l17.8,16.6l-0.1,22.6l-38.5,49.3l-13.3,6.9L190,259.7
		l9.6,4.9l-5.7,25.8l6.4,11.6l-15.8,8l-29.2-14.3l-0.4-19.7l16.3-23.5l-8.5-9.9l-7.4-28.4l8.2-2.2l20.7-25.2l8.3-45.5l15.7-12.2
		l1.1-29L220.3,99.4z"/>
	<path id="_x31_0625" class="st0" d="M184.1,186.8L163.5,212l-8.2,2.2l7.4,28.4l8.5,9.9L154.8,276l-28.2,12.2l-1.1-26.3l13.2,3.8
		l6.2-10.3l-9.9-15.3l-1.8-25.5l-10.6-5.6l1.9-11.8l22-10.3l8.2-13.5l16.7-3.5L184.1,186.8z"/>
	<path id="_x31_0676" class="st0" d="M455.1,217.6l-4.8,12l-3.2,34.5l9.3,14.6l-13.2,13.8L447,304l-7.5,12.1l19.9,17.1l-7.7,13.3
		L424.4,358l-14.7-27.3L368,324l-14,20.4l-4-9.1l6.7-22.1l-18.2-10.7l3.1-21.3l18.9,9.1l11.1-12.7l37.8-29.4l9-1.7l5.9-15.7
		l11.1,3.5L455.1,217.6z"/>
	<path id="_x31_0641" class="st0" d="M376.8,500.1l-1.9,20.8l10.2,3.2l6.6,17.3l-17.1,14.2l-8.3-2.5l-10.6-9.4l-12.6,10l-16.5-11.6
		l-18.4,20.7l-7.6-2.9l-3.7-3.8l-3.3-32.6l11.2-19.6l18-16.9l-0.4-5.9l23.1,1.5L376.8,500.1z"/>
	<path id="_x31_0609" class="st0" d="M102.9,72.7l12.7,22l-1.9,26.7l5.4,13.3l-18.2,5.8l-11.7-2.7l-8.7-10.4l-12.5,5.7l-0.3,52.7
		l5.5,9.6l-7,8.9l2.6,24.4l-2.4,12.5l13.4,12.4l6,14l-38.3,13.7l-13.5-12.1l-9-14.7l7.6-13.5l-17.5-35.3l-11.8-0.1L1,190.7l30.9-7.9
		l-2.2-27.3l-6.3-7.2l14.8-18.1L34,102.6l7.9-16.5l15.5-6.9l1.6-15.9l27.4,11L102.9,72.7z"/>
	<path id="_x31_0672" class="st0" d="M592.8,412l-5.5,10.2l2.6,17.5l-5.8,20.6l-13.4,10.6l11.7,17l-7.2,2.5l-22.1-7.8l-13.3-17.9
		l-3.1-11.9l-8.4-27.5l-0.9-19l23.3-23.7l6.9-12.6l1.9,26.2l15.5,1l10.8,16.6L592.8,412z"/>
	<path id="_x31_0682" class="st0" d="M712.3,352.9L712,381l22.7,22.8l-17,10l-17.6-2.4l-13-12.3l-13.7,1.8l-10.8-10.6l-5.8-22.7
		l-10.8-16.1l16.1-6.2l28.1,7.9L712.3,352.9z"/>
	<path id="_x31_0642" class="st0" d="M387.4,585.3l2.9,16.5l-29,27.8l-22.9,1.3l0.7-25.1l12.1-10.9l14.4-2.7l5.6-12.1L387.4,585.3z"
		/>
	<path id="_x31_0651" class="st0" d="M278.1,615.2l-1.9,8.4l7,22.4l-0.4,6.7l-7,6.7l-17.5-2.2l-11.5-3.9l-1.2-18.6l-6.6-2.8
		l-6.7-11.4l17-8.1l22.8-3.1L278.1,615.2z"/>
	<path id="_x31_0681" class="st0" d="M712.3,352.9l-22.2,0.4l-28.1-7.9l15-12.2l4.9-21.9l-2.8-16.3l-35.3,2.3l-4.1-8.3l6.5-19.3
		l-6.4-12.2l18.7-21.1l6.5,14l17.6,20.2l24.3,13.4l11,15l-0.6,19.5l-6.8,16.4L712.3,352.9z"/>
	<path id="_x31_0673" class="st0" d="M476.9,451.2l9,10.7l26-2.3l9.4,7.8l12.9,12.4l5.3,31.5l-11.9,3.2L513.3,534l-14.4,1.7
		l-5.3,12.4l-1.8,24.3l12.7,26.4l-2.2,13.3l-42.7,1.2l-9.8-4.8l-18.1-17.4l-11,4.7l-12.9-11.2l-20.4,0.7l-16.1-5.3l-4.8-26.8
		l8.3,2.5l17.1-14.2l-6.6-17.3l-10.2-3.2l1.9-20.8l12.2,8.4l13.5-3.7l38.7-21.4l7.4-17.9L476.9,451.2z"/>
	<path id="_x31_0644" class="st0" d="M323.9,439.1l7.5,29.6l-9,12.4l0.4,5.9l-18,16.9l-11.2,19.6l-13-10.4l-7.6-16.2l-16.9-8.2
		l-15.5-10.8l-4.4-10.2l-15.2-4.1L200,474.9l-26.9-18.8l-7.7-1.5l-4.1-9.6l12.2-6.4l32.5,1.8l10.5,11.4l8-2.8l15.5-23.7l10.2-25.8
		l16.9,37l10.9,4.6l31.3-4.1L323.9,439.1z"/>
	<path id="_x31_0611" class="st0" d="M263.2,1228.2l-16.5-9.9l-20.9,5.1l-1.6-13.7l-11.5,1l-6.8,9.9l-19.5-6.2l-5-15.5l2.8-18.4
		l-7.3-9.3l20-20.6l8-23.9l15.8-8.2l8.8-17.5l-2.8-11.2l12.7-0.6l7.9,60.9l17.2,21l12.4,7l6.9,36.7l-18.2,6.2L263.2,1228.2z"/>
	<path id="_x31_0626" class="st0" d="M354.9,202.2l-15,11.8l-15.4,21.7l-17.9-2.4l-15,3.4l11.2-37.9l-12.4-8.5l-5.5-31.2l12.2-22.9
		l14.8-7.7l-2.5-19.4l-8.8-6.7l5.9-10.7l17.3,2.5L336,81.6l23.8,4.7l12.3,6.9l-7.7,11.5l6.1,24.1l8,7.6l-9,17l1,21l-19.3,20.4
		L354.9,202.2z"/>
	<path id="_x31_0683" class="st0" d="M417.9,1347.3l8.2,10.7l25.7,20.1l-1.3,15.8l-12.1,11l-2.1,11.9l-10.9,11.6l-13.1-2.5
		l-8.4-13.7l-7.7,1.3l-1.3-15.5l-10.2-14.4l5.4-20.9l16-13.6L417.9,1347.3z"/>
	<path id="_x31_0680" class="st0" d="M510.3,340.8l-6.2,16.9l-18.5-1.9l-14.1-9.7l-19.8,0.4l7.7-13.3l-19.9-17.1L447,304l-3.8-11.5
		l13.2-13.8l10.1-5.4l14.6,2.1l10.7,30.9l2.6,16.1L510.3,340.8z"/>
	<path id="_x31_0677" class="st0" d="M584,239.2l-3.5,12l-13.4-1.2l-9,7.5l-10.7-8.2l-16.8,0.1l-3.6,18l-9.3,9.1l-28-14.8L483,249
		l-32.6-19.3l4.8-12l29.6,21.2l18.2,3.8l7.1,8.7l27.4-14.2l19.6-21.8l13.5-5.6l7.3,10.3l-4.9,10.8L584,239.2z"/>
	<path id="_x31_0650" class="st0" d="M284.6,615.5l1.2,11l18.3,5.1l-6.1,14.5l-14.8-0.1l-7-22.4l1.9-8.4L284.6,615.5z"/>
	<path id="_x31_0646" class="st0" d="M339.2,605.8l-0.7,25.1l0,0.5l-22,3.1l-12.3-2.9l-18.3-5.1l-1.2-11l24.5-0.9l21.3-11.5
		L339.2,605.8z"/>
	<path id="_x31_0684" class="st0" d="M417.9,1347.3l-11.8,1.8l-9-3.9l-16.6,4.5l-23-8.5l-6-9.2l2.8-12.1l12-0.4l9.7-9l25.8,10.9
		L417.9,1347.3z"/>
	<path id="_x31_0613" class="st0" d="M125.8,1148.3l-6.2,24.9l-19,7.2l-2.7,14.1l-13.9-7.5l-8.1-32.1l2.1-16.5l15.7-33.6l-5.2-9
		l6-17.5l11.8,3.7l-2.8,23.6l1.9,18.1l10.1,8.4l-2,16L125.8,1148.3z"/>
	<path id="_x31_0617" class="st0" d="M263.2,1228.2l6.9,2.8l-5.6,7l4.1,18l9.1,14.8l9.7,5.1l-9.2,9.8l-24.6,11.3l-8.6-19.9
		l-14.2-29.8l2.4-6.8l-7.4-17.2l20.9-5.1L263.2,1228.2z"/>
	<path id="_x31_0627" class="st0" d="M306.4,91.8l-5.9,10.7l8.8,6.7l2.5,19.4l-14.8,7.7l-12.2,22.9l-22.5,0.3l-17.8-16.6l-15.2-8.1
		l-7-15.8l-2.1-19.5l21.5-5.1l2.3,9.4l19.9-8.7l4.4-13.2l20-10.9l7,18.2L306.4,91.8z"/>
	<path id="_x31_0635" class="st0" d="M424.4,358l-3.8,9.3l-23.1-0.7l-4.8,19.7l-8.3,11.4l-5.3,28.2l5.9,10.6l-5.7,11.4l6.7,13.8
		l-2.2,27.6l-7,10.9l-31.4-17.5l-23.1-1.5l9-12.4l-7.5-29.6l-12.1-12l6.6-19.2l-2.9-9.3l12.3-10.6l10.1-32.8l16.2-10.9l14-20.4
		l41.6,6.6L424.4,358z"/>
	<path id="_x31_0652" class="st0" d="M236.9,691.7l9.9,3.6l13.9,22.7l-11.3,25.9l-2.6,15l-13.1,0.8l-19.5,8l-21.3-2.1L175.4,751
		l-12.7-31.1l9.1-16.8l13,4.4l30.6-3.2l6.6-10.9L236.9,691.7z"/>
	<path id="_x31_0634" class="st0" d="M315.5,398.7l2.9,9.3l-6.6,19.2l12.1,12l-14.8-2.1l-31.3,4.1l-10.9-4.6l-16.9-37l3.6-15.4
		l21.6-8.5l3.1,7.1l23.8-2.7L315.5,398.7z"/>
	<path id="_x31_0629" class="st0" d="M343.4,266.6l-1.8,14.8l-3.1,21.3l18.2,10.7l-6.7,22.1l4,9.1l-16.2,10.9l-10.1,32.8l-12.3,10.6
		l-13.2-18.5l-23.8,2.7l-3.1-7.1l-21.6,8.5l-11.1-8.8l-1.2-9.9l5-17.2l16.7-10.1l-14-19l21.6-3.1l8.6-16.5l27.8-5.2l28.2-27.5
		L343.4,266.6z"/>
	<path id="_x31_0628" class="st0" d="M284.9,159.1l5.5,31.2l12.4,8.5l-11.2,37.9l-27.6,15l-23.4,5.6l-35.7,0.9l-5.4,6.4l-9.6-4.9
		l20.5-21.4l13.3-6.9l38.5-49.3l0.1-22.6L284.9,159.1z"/>
	<path id="_x31_0645" class="st0" d="M308.3,562.8l10.9,8.4l11.3,31.8l-21.3,11.5l-24.5,0.9l-6.5-0.2l-6-5.9l5.9-20l-2.7-10
		l15.5-2.2l9.8-17.2L308.3,562.8z"/>
	<path id="_x31_0612" class="st0" d="M97.2,1218.3l-12.3,12.2l-3.7-14.6l2.7-25.6l15.3,10.6L97.2,1218.3z"/>
	<path id="_x31_0643" class="st0" d="M449.8,608.5L436.2,623l-5.5,19.3l2,11.1l-11.7-7.6l-18.5,5L382,640.1l-13.9-1.5l-6.8-9.1
		l29-27.8l-2.9-16.5l20.4-0.7l12.9,11.2l11-4.7L449.8,608.5z"/>
	<path id="_x31_0653" class="st0" d="M202.4,918l-23.1,3.8l-12.1-7.9l47.5-75.4l-6.7-5.5l-16.9-57.6l1.7-9.8l21.3,2.1l19.5-8
		l13.1-0.8l5.8,43l-18.3,26l-1.4,17.8l-6.3,3.1l-17.7,36.5l1.6,13.5l-8.7,6L202.4,918z"/>
	<path id="_x31_0614" class="st0" d="M129.3,1053.5l-7.5,23.7l-15.7,5l-11.8-3.7l7.1-25.2l9.9-13.4l-5.2-9.2l20.2-38l6.8-26.4
		l-3.3-16.1l11.9-11.9l9.4,18l-7,14.2l4.8,10l-5.7,14.1l0.9,18.5l-12.9,7.7l-12.6,14.8l1.9,12.1L129.3,1053.5z"/>
	<path id="_x31_0654" class="st0" d="M258.3,657.2l-4,17.4l-11.6-0.5l-5.8,17.6l-15,1.6l-6.6,10.9l-30.6,3.2l-13-4.4l0.1-20.9
		l-4-28.8l31.7-7.3l31.4-1.6l8.1-12.5l6.6,2.8l1.2,18.6L258.3,657.2z"/>
	<path id="_x31_0666" class="st0" d="M414.9,710.6l12.9,23.7l-3.5,18.6l-31.4,6.4l-36.6-4.7l-10.6,4l2.4-14.9l9-11.4l-0.9-10.8
		l23.8-4.3l6.6,4.8L414.9,710.6z"/>
	<path id="_x31_0674" class="st0" d="M673.3,401l-12,15.1l-12.4,7.4l0.7,26l9.7,21l-7.9,4.1l-13.9,15l-38.3-5.3l-16.9,3.6l-11.7-17
		l13.4-10.6l5.8-20.6l-2.6-17.5l5.5-10.2l19.5-1.1l-2.1-15.6l11.6-8.2l40.7,3.2L673.3,401z"/>
	<path id="_x31_0665" class="st0" d="M502.4,612.1l31-1.6l-4.3,14l-9.4,8.2l-7.2,16.9l-15.2,8.9l-2.8,10l-17.6,0.2l-0.3,28.3
		l-15,2.7l-12.7,8.3l-4.7-17.2l-11.6-37.6l-2-11.1l5.5-19.3l13.6-14.5l9.8,4.8L502.4,612.1z"/>
	<path id="_x31_0678" class="st0" d="M639.8,257.5l6.4,12.2l-6.5,19.3l4.1,8.3l35.3-2.3l2.8,16.3l-4.9,21.9l-15,12.2l-16.1,6.2
		l-13.1,5.1L604.8,331l0.1-6.1l-18.2-12l-18.6-3.4l-0.2-16.5l12.3-16l0.2-26l3.5-12l10.3-7l9,9.4L639.8,257.5z"/>
	<path id="_x31_0655" class="st0" d="M333.6,656.4l8.9,5.7l-10.3,15l-18.6-4.1l-17.7,2.4l9.2-20.2L333.6,656.4z"/>
	<path id="_x31_0656" class="st0" d="M289.5,676l-12.2-2.5l-18.1,8.8l-5-7.6l4-17.4l17.5,2.2l7-6.7L289.5,676z"/>
	<path id="_x31_0657" class="st0" d="M254.3,674.6l5,7.6l-12.4,13l-9.9-3.6l5.8-17.6L254.3,674.6z"/>
	<path id="_x31_0648" class="st0" d="M366.4,553.1l4.8,26.8l-5.6,12.1l-14.4,2.7l-12.1,10.9l-8.7-2.7l-11.3-31.8l-10.9-8.4
		l18.4-20.7l16.5,11.6l12.6-10L366.4,553.1z"/>
	<path id="_x31_0618" class="st0" d="M255.1,1299.8l16.2,17.3l-1.4,18l-7,25l-25.2-31.1l-17.6-11.1l-0.6-14.5l6.4-10l17.7-0.8
		L255.1,1299.8z"/>
	<path id="_x31_0647" class="st0" d="M293.6,523.6l3.3,32.6l-23.8-6.3l-2-16l9.5-20.6L293.6,523.6z"/>
	<path id="_x31_0658" class="st0" d="M679.4,501.8l24.9,3l1.9,27.4l11.6,7.7l9.8,23l-7.9,9.2l8,16.2l-14-4.5l-31,8l-19.9-4.3
		l-19.6,4.3l1.6-28.8l-14.1-19.4l9.8-17.9l-3.1-36.1l13.9-15l12.1,19.1L679.4,501.8z"/>
	<path id="_x31_0619" class="st1" d="M270,1335.2l1.4-18l-16.2-17.3l-1.5-2.8l24.6-11.3l9.2-9.8l5.6,14.5l14.4-6.2l19.3,25
		l27.5,10.6l-2.8,12.1l6,9.2l-7,15.6l-9.5,3.3l-1.9,12.1l-11.1-11.2l-16.1-1l-29.3-11L270,1335.2z M270.1,1231l-6.9-2.8l2.5-7.1
		l18.2-6.2l9.5,44.8l-11.3-13.5l-3.4-16.7L270.1,1231z"/>
	<path id="_x31_0630" class="st0" d="M240.6,257.3l7.8,12.4l-4.5,10.3l10.2,12.8l-5.1,26.5l14,19l-16.7,10.1l-5,17.2l-20.5-4.2
		l-17-14.5l-16.7-0.7l-6.5-4l3.7-32.1l15.8-8l-6.4-11.6l5.7-25.8l5.4-6.4L240.6,257.3z"/>
	<path id="_x31_0636" class="st0" d="M224,533.2l23.7,5.1l23.4-4.5l2,16l-3.4,22l5.5,7.5l2.7,10l-5.9,20l-22.8,3.1l-17,8.1l1.3-44.3
		l4.1-11.7l-20.3-15.9l-11,0.6l-8.3,10.2l-17.1-17l-0.2-13l34.4,5.1L224,533.2z"/>
	<path id="_x31_0615" class="st1" d="M259,1056.1l-2.4,10.7l-11.1,4.4l-1-15.5L259,1056.1z M179.4,1175.8l-19.9-1l-14.3,3.7
		l-2.8-19.5l-16.6-10.7l-12.5-0.1l2-16l-10.1-8.4l-1.9-18.1l2.8-23.6l15.7-5l7.5-23.7l3.9-8.3l22.8-4.2l11.6-5.9l7.6,24.1l9.8,14.7
		l-6.6,15.4l11.9,3.8l30.2-11.9l6.4,8.6l2.8,11.2l-8.8,17.5l-15.8,8.2l-8,23.9l-20,20.6L179.4,1175.8z"/>
	<path id="_x31_0675" class="st0" d="M582.3,487.9l16.9-3.6l38.3,5.3l3.1,36.1l-9.8,17.9l14.1,19.4l-1.6,28.8l-35.3-2.6l-14.4-3.4
		l-28.2,7.5l-1-24.9l5.3-16.7l15.1-15.9l0.2-24.5l5.4-11.1l-12.9-5.1l-10.7,4L553,482.6l22.1,7.8L582.3,487.9z"/>
	<path id="_x31_0637" class="st0" d="M154.8,276l0.4,19.7l29.2,14.3l-3.7,32.1l6.5,4l-10,33.3l-23.3,6.3l-0.6,20.5l7.9,38.8l4.1,9.6
		l-7.8,21.9l1.4,14.7l-7.4,16.7l-8.4-5.3L121,469.4l-11.6-5.5l3.9-29.3l9.3-14.5l12.4,1.5l9.2-26.3l-5.7-5.5l-15.6,16l-4.9-18.4
		l-17-25.2l5.1-16.4l-8.9-13.2l-30.8-26.5l-11.4-19.7l-7.3-4.8l38.3-13.7l3.2,38l9,5.2l13.5-4.1l-3.2-16.4l7.2-19.1l9.8-9.5
		l1.1,26.3L154.8,276z"/>
	<path id="_x31_0620" class="st0" d="M253.6,1297.1l1.5,2.8l-11.5-7.2l-17.7,0.8l-12.8-0.7l-22.9-17.9l-11.8-32.4l8-8.4l-0.2-19.6
		l19.5,6.2l7.1-10.1l11.2-0.9l0.8,12.5l8.3,18.9l-2.3,6.9l14.1,29.2L253.6,1297.1z"/>
	<path id="_x31_0667" class="st0" d="M477,777.1l6-14.8l4.6-12.3l31.1,28.4l-6.8,25l-18.2,4.4l-21.1-6.7l8.5-18.3L477,777.1z"/>
	<path id="_x31_0659" class="st0" d="M727.6,588.3l-8-16.2l7.9-9.2l-9.8-23l-11.6-7.7l-1.9-27.4l-24.9-3l-1.7-22.9l10.8-6l15.6-5.3
		l13.7,12.7l12.2-10.4l16.3-46.8l30.6,8.4l-6,8.8l8.5,15l11.7,1.5l8,11.1l-4.5,19l-11.5,6.2l7.5,9.9l-10.9,17.3l9.9,8.7l-6.2,21.3
		l1.8,21.6l-8.9,13.2l-25.3,9.5l-10.5,11.3L727.6,588.3z"/>
	<path id="_x31_0679" class="st0" d="M580.5,251.2l-0.2,26l-12.3,16l0.2,16.5l18.6,3.4l18.2,12l-0.1,6.1l-13.9-0.1l-2.4,13.7
		l-22.4-5.5l-13.4,4.6l-15.3,7l-27.1-10l-15.8-18.4l-2.6-16.1l-10.7-30.9l-14.6-2.1l-10.1,5.4l-9.3-14.6l3.2-34.5L483,249l6.7,12.6
		l28,14.8l9.3-9.1l3.6-18l16.8-0.1l10.7,8.2l9-7.5L580.5,251.2z"/>
	<path id="_x31_0638" class="st0" d="M256.2,488.7l-5.6,12.3l-22.8-2.3l-2.7,11.3l7,10.9l-8,12.3l-8.9,1.4l-34.4-5.1l-20.5-1.4
		l-8.6-20.1l7.4-16.7l-1.4-14.7l7.8-21.9l7.7,1.5l26.9,18.8l21.1-11.3l15.2,4.1l4.4,10.2L256.2,488.7z"/>
	<path id="_x31_0631" class="st0" d="M343.4,266.6l-8.1,0.3L307,294.5l-27.8,5.2l-8.6,16.5l-21.6,3.1l5.1-26.5L243.9,280l4.5-10.3
		l-7.8-12.4l23.4-5.6l27.6-15l15-3.4l17.9,2.4l15.4-21.7l15-11.8l7.9,4.7l1,26.2l-15.9,16.4L343.4,266.6z"/>
	<path id="_x31_0621" class="st0" d="M406.1,1349.2l-16,13.6l-5.4,20.9l10.2,14.4l1.3,15.5l-24.4,10.3l-12.3,15.2l-15-14.7
		l10.8-15.2l-1-30.4l-15.3-6.6l1.3-11.2l10.1-4.2l7-15.6l23,8.5l16.6-4.5L406.1,1349.2z"/>
	<path id="_x31_0661" class="st0" d="M717.7,413.9l-23,9.2l-10.9,18.1l-3.8,18.3l8.5,13.4l-10.8,6l1.7,22.9l-15.9-8.1l-12.1-19.1
		l7.9-4.1l-9.7-21l-0.7-26l12.4-7.4l12-15.1l13.7-1.8l13,12.3L717.7,413.9z"/>
</g>
</svg>
