<?xml version="1.0" encoding="utf-8"?>
<!-- Generator: Adobe Illustrator 27.6.1, SVG Export Plug-In . SVG Version: 6.00 Build 0)  -->
<svg version="1.2" baseProfile="tiny" id="g-Thai-Restaurants-Artboard_1-interactions-img" xmlns="http://www.w3.org/2000/svg" xmlns:xlink="http://www.w3.org/1999/xlink"
	 x="0px" y="0px" viewBox="0 0 600 616" overflow="visible" xml:space="preserve">
<g>
	
		<path id="Bangkok_00000001627809656219651270000017143859929666112942_" fill="#E0DEDE" stroke="#000000" stroke-width="0.5" stroke-miterlimit="10" d="
		M119.703,191.649l-7.322-0.29l-2.351,5.179l-1.648,0.126l-1.72-5.964l0.098-1.709l3.803,0.015l1.571-3.732l3.164,0.742l5.636-0.79
		l0.467,3.398L119.703,191.649z"/>
	
		<path id="Tak_00000023978005774929849750000014248395095403807120_" fill="#E0DEDE" stroke="#000000" stroke-width="0.5" stroke-miterlimit="10" d="
		M73.797,94.027l0.1,5.046l7.502,3.673l-0.957,8.246l1.671,1.039l-2.566,8.541l-5.977,1.627l-0.149,5.256l2.038,9.96l1.062,2.469
		l-1.989,5.618l0.37,3.783l-1.894,4.281l-2.169-1.36l-5.718-8.544l-2.98-1.417l0.991-7.52l2.384-3.719l3.18,0.39l2.374-6.755
		l-1.473-1.412l-4.011,4.106l-1.263-4.725l-4.358-6.478l1.317-4.222l-2.282-3.398l-7.902-6.814l-2.933-5.053l-1.863-1.232
		l9.827-3.513l0.824,9.765l2.3,1.342l3.475-1.065l-0.816-4.204l1.853-4.907l2.52-2.433l0.275,6.75L73.797,94.027z"/>
	
		<path id="Chiang_Rai_00000080168951210047263110000001134949290984498859_" fill="#E0DEDE" stroke="#000000" stroke-width="0.5" stroke-miterlimit="10" d="
		M108.113,41.369l-5.135,2.787l-1.129,3.401l-5.11,2.243l-0.598-2.41l-5.526,1.317l-2.859,0.169l-0.277,7.435l-4.024,3.141
		l-2.223-4.478l0.788-2.251l-2.017-9.288l2.117-1.671l4.045-11.069l-0.144-4.794l7.078,0.277l3.857-2.738l3.916,3.144l6.103-1.796
		l2.905,4.963l2.184,0.814l-1.612,6.909L108.113,41.369z"/>
	
		<path id="Chonburi_00000013164238703828040710000007721216245249170621_" fill="#E0DEDE" stroke="#000000" stroke-width="0.5" stroke-miterlimit="10" d="
		M141.176,204.609l-0.621,0.939l-7.301,2.895l-1.699-1.229l-6.108,1.111l0.239,2.779l-2.315,2.928l-0.613,3.832l-3.501-1.702
		l2.053-2.566l-1.378-2.708l1.707-2.661l-0.513-6.662l1.699-4.212l3.993-3.164l9.46,4.704L141.176,204.609z"/>
	
		<path id="Nakhon_Nayok_00000076576398967588253260000002009743400087889062_" fill="#E0DEDE" stroke="#000000" stroke-width="0.5" stroke-miterlimit="10" d="
		M133.497,173.394l0.747,4.222l-7.432,7.145l-5.867,0.326l0.18-6.442l3.1-2.808l3.685-0.698l1.445-3.116L133.497,173.394z"/>
	
		<path id="Nakhon_Ratchasima_00000080892755107597112470000003387641423484416423_" fill="#E0DEDE" stroke="#000000" stroke-width="0.5" stroke-miterlimit="10" d="
		M156.469,138.988l2.302,2.749l6.68-0.598l2.412,1.992l3.306,3.19l1.358,8.079l-3.057,0.829l-3.647,5.007l-3.691,0.431l-1.36,3.175
		l-0.449,6.239l3.254,6.775l-0.572,3.416l-10.961,0.321l-2.52-1.242l-4.645-4.455l-2.818,1.204l-3.318-2.882l-5.246,0.177
		l-4.142-1.37l-1.242-6.881l2.122,0.647l4.378-3.639l-1.699-4.453l-2.62-0.819l0.493-5.341l3.136,2.158l3.462-0.952l9.924-5.492
		l1.902-4.599L156.469,138.988z"/>
	
		<path id="Ayutthaya_00000152264808363604076670000000459166124970281115_" fill="#E0DEDE" stroke="#000000" stroke-width="0.5" stroke-miterlimit="10" d="
		M113.194,167.635l2.805,2.146l2.892,8.171l-5.466,2.949l-6.301,0.241l-1.671-0.062l-1.55-1.519l1.507-5.135l-0.683-2.569
		l3.991-0.565l2.523-4.404L113.194,167.635z"/>
	
		<path id="Nakhon_Pathom_00000114786957749657684220000004354993133943125674_" fill="#E0DEDE" stroke="#000000" stroke-width="0.5" stroke-miterlimit="10" d="
		M105.454,181.08l-0.488,2.163l1.794,5.746l-0.098,1.709l-1.804,1.712l-4.499-0.557l-2.944-1.009l-0.318-4.779l-1.684-0.711
		l-1.709-2.921l4.353-2.087l5.846-0.788L105.454,181.08z"/>
	<path id="Charm_x5F_icon_00000047058832687800487150000013131626819186208953_" d="M484.282,86.453
		c0.004,1.353-0.28,2.691-0.832,3.926c-1.456,3.25-8.45,12.636-8.45,12.636s-6.968-9.386-8.45-12.636
		c-0.552-1.235-0.836-2.573-0.832-3.926c-0.043-5.169,4.112-9.395,9.281-9.438c0,0,0,0,0.001,0
		C480.169,77.058,484.325,81.283,484.282,86.453C484.282,86.453,484.282,86.453,484.282,86.453z"/>
	<path id="Thai_x5F_icon_00000098200891239377968950000014626425131222341248_" d="M355.282,319.453
		c0.004,1.353-0.28,2.691-0.832,3.926c-1.456,3.25-8.45,12.636-8.45,12.636s-6.968-9.386-8.45-12.636
		c-0.552-1.235-0.836-2.573-0.832-3.926c-0.043-5.169,4.112-9.395,9.281-9.438c0,0,0,0,0.001,0
		C351.169,310.058,355.325,314.283,355.282,319.453C355.282,319.453,355.282,319.453,355.282,319.453z"/>
	<path id="Opai_x5F_icon_00000111912684781686808290000015762564292450746523_" d="M275.282,464.453
		c0.004,1.353-0.28,2.691-0.832,3.926c-1.456,3.25-8.45,12.636-8.45,12.636s-6.968-9.386-8.45-12.636
		c-0.552-1.235-0.836-2.573-0.832-3.926c-0.043-5.169,4.112-9.395,9.281-9.438c0,0,0,0,0.001,0
		C271.169,455.058,275.325,459.283,275.282,464.453C275.282,464.453,275.282,464.453,275.282,464.453z"/>
	<path id="Raenu_x5F_icon_00000116940248819130879200000008883242548339580340_" d="M313.282,391.453
		c0.004,1.353-0.28,2.691-0.832,3.926c-1.456,3.25-8.45,12.636-8.45,12.636s-6.968-9.386-8.45-12.636
		c-0.552-1.235-0.836-2.573-0.832-3.926c-0.043-5.169,4.112-9.395,9.281-9.438c0,0,0,0,0.001,0
		C309.169,382.058,313.325,386.283,313.282,391.453C313.282,391.453,313.282,391.453,313.282,391.453z"/>
	<path id="Liv_x5F_icon_00000030477798455968519490000008411898851507921315_" d="M349.282,343.453
		c0.004,1.353-0.28,2.691-0.832,3.926c-1.456,3.25-8.45,12.636-8.45,12.636s-6.968-9.386-8.45-12.636
		c-0.552-1.235-0.836-2.573-0.832-3.926c-0.043-5.169,4.112-9.395,9.281-9.438c0,0,0,0,0.001,0
		C345.169,334.058,349.325,338.283,349.282,343.453C349.282,343.453,349.282,343.453,349.282,343.453z"/>
	<path id="Spice_x5F_icon_00000160885573620871942680000016843680464031160482_" d="M365.282,316.453
		c0.004,1.353-0.28,2.691-0.832,3.926c-1.456,3.25-8.45,12.636-8.45,12.636s-6.968-9.386-8.45-12.636
		c-0.552-1.235-0.836-2.573-0.832-3.926c-0.043-5.169,4.112-9.395,9.281-9.438c0,0,0,0,0.001,0
		C361.169,307.058,365.325,311.283,365.282,316.453C365.282,316.453,365.282,316.453,365.282,316.453z"/>
	<path id="Mek_x5F_icon_00000080904098488205200300000007335042186162630583_" d="M383.282,375.453
		c0.004,1.353-0.28,2.691-0.832,3.926c-1.456,3.25-8.45,12.636-8.45,12.636s-6.968-9.386-8.45-12.636
		c-0.552-1.235-0.836-2.573-0.832-3.926c-0.043-5.169,4.112-9.395,9.281-9.438c0,0,0,0,0.001,0
		C379.169,366.058,383.325,370.283,383.282,375.453C383.282,375.453,383.282,375.453,383.282,375.453z"/>
	<path id="Pa_x5F_icon_00000167379348334014123580000006932398966732328612_" d="M480.282,280.453
		c0.004,1.353-0.28,2.691-0.832,3.926c-1.456,3.25-8.45,12.636-8.45,12.636s-6.968-9.386-8.45-12.636
		c-0.552-1.235-0.836-2.573-0.832-3.926c-0.043-5.169,4.112-9.395,9.281-9.438c0,0,0,0,0.001,0
		C476.169,271.058,480.325,275.283,480.282,280.453C480.282,280.453,480.282,280.453,480.282,280.453z"/>
</g>
<style>
#g-Thai-Restaurants-Artboard_1-interactions-img rect, #g-Thai-Restaurants-Artboard_1-interactions-img circle, #g-Thai-Restaurants-Artboard_1-interactions-img path, #g-Thai-Restaurants-Artboard_1-interactions-img line, #g-Thai-Restaurants-Artboard_1-interactions-img polyline, #g-Thai-Restaurants-Artboard_1-interactions-img polygon { vector-effect: non-scaling-stroke; }
</style>
</svg>

